<svg xmlns="http://www.w3.org/2000/svg" width="50pt" height="50pt" preserveAspectRatio="xMidYMid meet" version="1.0" viewBox="0 0 100 100"><g fill="#000" stroke="none"><path d="M386 944 c-171 -41 -308 -192 -338 -371 -51 -303 217 -573 521 -526 98 15 171 52 245 123 340 326 31 885 -428 774z m197 -203 c26 -25 31 -40 35 -91 4 -56 3 -60 -17 -60 -19 0 -21 6 -21 50 0 62 -31 100 -80 100 -49 0 -80 -38 -80 -100 0 -43 -3 -50 -20 -50 -17 0 -20 7 -20 46 0 25 7 61 16 79 33 70 130 84 187 26z m85 -173 c17 -17 17 -239 0 -256 -17 -17 -319 -17 -336 0 -17 17 -17 239 0 256 17 17 319 17 336 0z" transform="translate(0.000000,100.000000) scale(0.100000,-0.100000)"/><path d="M472 488 c-14 -14 -15 -32 -3 -56 5 -9 12 -25 15 -34 3 -10 10 -18 16 -18 6 0 13 8 16 18 3 9 11 27 17 40 20 41 -29 82 -61 50z" transform="translate(0.000000,100.000000) scale(0.100000,-0.100000)"/></g></svg>